<svg width="105" height="31" viewBox="0 0 105 31" fill="none" xmlns="http://www.w3.org/2000/svg">
<path d="M23.522 2.01393V29.9819H18.012V18.6199H5.51002V29.9819H1.48863e-05V2.01393H5.51002V13.2999H18.012V2.01393H23.522ZM38.0226 30.4379C35.9959 30.4379 34.2732 30.0579 32.8546 29.2979C31.4612 28.5379 30.3972 27.4866 29.6626 26.1439C28.9279 24.8013 28.5606 23.2559 28.5606 21.5079C28.5606 19.8359 28.9912 18.3286 29.8526 16.9859C30.7139 15.6433 31.8666 14.5793 33.3106 13.7939C34.7546 12.9833 36.3632 12.5779 38.1366 12.5779C40.5179 12.5779 42.4686 13.2746 43.9886 14.6679C45.5339 16.0359 46.5346 18.0246 46.9906 20.6339L34.8306 24.5099C35.6412 25.4473 36.7432 25.9159 38.1366 25.9159C38.7192 25.9159 39.2766 25.8146 39.8086 25.6119C40.3659 25.4093 40.9106 25.1433 41.4426 24.8139L43.7986 28.7659C42.9119 29.2726 41.9492 29.6779 40.9106 29.9819C39.8972 30.2859 38.9346 30.4379 38.0226 30.4379ZM33.8046 21.2039C33.8046 21.3306 33.8046 21.4446 33.8046 21.5459L41.1006 19.0759C40.8726 18.4426 40.5052 17.8979 39.9986 17.4419C39.4919 16.9606 38.7319 16.7199 37.7186 16.7199C36.5279 16.7199 35.5779 17.1253 34.8686 17.9359C34.1592 18.7466 33.8046 19.8359 33.8046 21.2039ZM50.8565 29.9819V-6.77109e-05H56.1765V18.7719L64.0805 12.9579L67.3105 15.8079L61.4205 20.2539L67.9185 29.9819H61.7245L57.6585 23.0659L56.1765 24.1679V29.9819H50.8565ZM73.1586 6.07993H78.4786V13.2999H82.5066V17.4419H78.4786V29.9819H73.1586V17.4419H70.5746V13.2999H73.1586V6.07993ZM85.2637 21.4699C85.2637 19.7726 85.6564 18.2526 86.4417 16.9099C87.2524 15.5673 88.3797 14.5159 89.8237 13.7559C91.2677 12.9706 92.927 12.5779 94.8017 12.5779C96.7017 12.5779 98.3484 12.9706 99.7417 13.7559C101.135 14.5159 102.199 15.5673 102.934 16.9099C103.694 18.2526 104.074 19.7726 104.074 21.4699C104.074 23.1673 103.694 24.6999 102.934 26.0679C102.199 27.4106 101.135 28.4746 99.7417 29.2599C98.3484 30.0453 96.6764 30.4379 94.7257 30.4379C92.9017 30.4379 91.2677 30.0833 89.8237 29.3739C88.405 28.6646 87.2904 27.6386 86.4797 26.2959C85.669 24.9533 85.2637 23.3446 85.2637 21.4699ZM90.6217 21.5079C90.6217 22.8253 91.0017 23.9273 91.7617 24.8139C92.5217 25.6753 93.4844 26.1059 94.6497 26.1059C95.891 26.1059 96.879 25.6753 97.6137 24.8139C98.3484 23.9273 98.7157 22.8253 98.7157 21.5079C98.7157 20.1906 98.3484 19.1013 97.6137 18.2399C96.879 17.3533 95.891 16.9099 94.6497 16.9099C93.4844 16.9099 92.5217 17.3533 91.7617 18.2399C91.0017 19.1013 90.6217 20.1906 90.6217 21.5079Z" fill="black"/>
</svg>
